<svg width="32" height="32" viewBox="0 0 32 32" fill="none" xmlns="http://www.w3.org/2000/svg">
<g clip-path="url(#clip0_2056_1421)">
<rect width="32" height="32" rx="2.5" fill="#141414"/>
<g filter="url(#filter0_d_2056_1421)">
<circle cx="16" cy="16" r="10.5" stroke="#F1F1F1" stroke-width="2.5" shape-rendering="crispEdges"/>
</g>
<g filter="url(#filter1_di_2056_1421)">
<circle cx="6.5" cy="6.75" r="2.5" stroke="#CC8EF2" stroke-width="2.5" shape-rendering="crispEdges"/>
</g>
<g filter="url(#filter2_di_2056_1421)">
<circle cx="25.75" cy="6.75" r="2.5" stroke="#E98EF2" stroke-width="2.5" shape-rendering="crispEdges"/>
</g>
<g filter="url(#filter3_di_2056_1421)">
<circle cx="25.75" cy="25.5" r="2.5" stroke="#A88EF2" stroke-width="2.5" shape-rendering="crispEdges"/>
</g>
<g filter="url(#filter4_di_2056_1421)">
<circle cx="6.5" cy="25.5" r="2.5" stroke="#8E98F2" stroke-width="2.5" shape-rendering="crispEdges"/>
</g>
<mask id="path-7-outside-1_2056_1421" maskUnits="userSpaceOnUse" x="8.125" y="3.07812" width="16" height="22" fill="black">
<rect fill="white" x="8.125" y="3.07812" width="16" height="22"/>
<path fill-rule="evenodd" clip-rule="evenodd" d="M11.125 7.60156C11.125 6.76019 11.8071 6.07812 12.6484 6.07812C13.4898 6.07812 14.1719 6.76019 14.1719 7.60156V13.2383C14.1719 14.0797 13.4898 14.7617 12.6484 14.7617C11.8071 14.7617 11.125 14.0797 11.125 13.2383V7.60156ZM18.2852 21.7695C17.4438 21.7695 16.7617 21.0875 16.7617 20.2461C16.7617 19.4047 17.4438 18.7227 18.2852 18.7227H19.8086C20.65 18.7227 21.332 19.4047 21.332 20.2461C21.332 21.0875 20.65 21.7695 19.8086 21.7695H18.2852ZM20.2538 12.0635C19.6589 11.4686 18.6943 11.4686 18.0993 12.0635L11.5929 18.57C10.9979 19.1649 10.9979 20.1295 11.5929 20.7244C12.1878 21.3194 13.1524 21.3194 13.7473 20.7244L20.2538 14.218C20.8487 13.623 20.8487 12.6584 20.2538 12.0635Z"/>
</mask>
<path fill-rule="evenodd" clip-rule="evenodd" d="M11.125 7.60156C11.125 6.76019 11.8071 6.07812 12.6484 6.07812C13.4898 6.07812 14.1719 6.76019 14.1719 7.60156V13.2383C14.1719 14.0797 13.4898 14.7617 12.6484 14.7617C11.8071 14.7617 11.125 14.0797 11.125 13.2383V7.60156ZM18.2852 21.7695C17.4438 21.7695 16.7617 21.0875 16.7617 20.2461C16.7617 19.4047 17.4438 18.7227 18.2852 18.7227H19.8086C20.65 18.7227 21.332 19.4047 21.332 20.2461C21.332 21.0875 20.65 21.7695 19.8086 21.7695H18.2852ZM20.2538 12.0635C19.6589 11.4686 18.6943 11.4686 18.0993 12.0635L11.5929 18.57C10.9979 19.1649 10.9979 20.1295 11.5929 20.7244C12.1878 21.3194 13.1524 21.3194 13.7473 20.7244L20.2538 14.218C20.8487 13.623 20.8487 12.6584 20.2538 12.0635Z" fill="#F1F1F1"/>
<path d="M18.0993 12.0635L16.3316 10.2957L16.3316 10.2957L18.0993 12.0635ZM11.5929 18.57L13.3606 20.3377L13.3606 20.3377L11.5929 18.57ZM11.5929 20.7244L9.8251 22.4922L9.8251 22.4922L11.5929 20.7244ZM13.7473 20.7244L11.9796 18.9567L11.9796 18.9567L13.7473 20.7244ZM20.2538 14.218L22.0216 15.9857L22.0216 15.9857L20.2538 14.218ZM12.6484 3.57812C10.4264 3.57812 8.625 5.37948 8.625 7.60156H13.625C13.625 8.1409 13.1878 8.57813 12.6484 8.57813V3.57812ZM16.6719 7.60156C16.6719 5.37948 14.8705 3.57812 12.6484 3.57812V8.57813C12.1091 8.57813 11.6719 8.1409 11.6719 7.60156H16.6719ZM16.6719 13.2383V7.60156H11.6719V13.2383H16.6719ZM12.6484 17.2617C14.8705 17.2617 16.6719 15.4604 16.6719 13.2383H11.6719C11.6719 12.6989 12.1091 12.2617 12.6484 12.2617V17.2617ZM8.625 13.2383C8.625 15.4604 10.4264 17.2617 12.6484 17.2617V12.2617C13.1878 12.2617 13.625 12.6989 13.625 13.2383H8.625ZM8.625 7.60156V13.2383H13.625V7.60156H8.625ZM14.2617 20.2461C14.2617 22.4682 16.0631 24.2695 18.2852 24.2695V19.2695C18.8245 19.2695 19.2617 19.7068 19.2617 20.2461H14.2617ZM18.2852 16.2227C16.0631 16.2227 14.2617 18.024 14.2617 20.2461H19.2617C19.2617 20.7854 18.8245 21.2227 18.2852 21.2227V16.2227ZM19.8086 16.2227H18.2852V21.2227H19.8086V16.2227ZM23.832 20.2461C23.832 18.024 22.0307 16.2227 19.8086 16.2227V21.2227C19.2693 21.2227 18.832 20.7854 18.832 20.2461H23.832ZM19.8086 24.2695C22.0307 24.2695 23.832 22.4682 23.832 20.2461H18.832C18.832 19.7068 19.2693 19.2695 19.8086 19.2695V24.2695ZM18.2852 24.2695H19.8086V19.2695H18.2852V24.2695ZM19.8671 13.8313C19.4857 14.2126 18.8674 14.2126 18.486 13.8313L22.0216 10.2957C20.4503 8.72448 17.9028 8.72448 16.3316 10.2957L19.8671 13.8313ZM13.3606 20.3377L19.8671 13.8313L16.3316 10.2957L9.8251 16.8022L13.3606 20.3377ZM13.3606 18.9567C13.742 19.338 13.742 19.9564 13.3606 20.3377L9.8251 16.8022C8.25385 18.3735 8.25385 20.921 9.8251 22.4922L13.3606 18.9567ZM11.9796 18.9567C12.3609 18.5753 12.9793 18.5753 13.3606 18.9567L9.8251 22.4922C11.3964 24.0635 13.9439 24.0635 15.5151 22.4922L11.9796 18.9567ZM18.486 12.4502L11.9796 18.9567L15.5151 22.4922L22.0216 15.9857L18.486 12.4502ZM18.486 13.8313C18.1047 13.4499 18.1047 12.8316 18.486 12.4502L22.0216 15.9857C23.5928 14.4145 23.5928 11.867 22.0216 10.2957L18.486 13.8313Z" fill="#141414" mask="url(#path-7-outside-1_2056_1421)"/>
</g>
<defs>
<filter id="filter0_d_2056_1421" x="-0.95" y="-0.95" width="33.9" height="33.9" filterUnits="userSpaceOnUse" color-interpolation-filters="sRGB">
<feFlood flood-opacity="0" result="BackgroundImageFix"/>
<feColorMatrix in="SourceAlpha" type="matrix" values="0 0 0 0 0 0 0 0 0 0 0 0 0 0 0 0 0 0 127 0" result="hardAlpha"/>
<feOffset/>
<feGaussianBlur stdDeviation="2.6"/>
<feComposite in2="hardAlpha" operator="out"/>
<feColorMatrix type="matrix" values="0 0 0 0 1 0 0 0 0 1 0 0 0 0 1 0 0 0 0.4 0"/>
<feBlend mode="normal" in2="BackgroundImageFix" result="effect1_dropShadow_2056_1421"/>
<feBlend mode="normal" in="SourceGraphic" in2="effect1_dropShadow_2056_1421" result="shape"/>
</filter>
<filter id="filter1_di_2056_1421" x="1.5" y="1.75" width="10" height="10" filterUnits="userSpaceOnUse" color-interpolation-filters="sRGB">
<feFlood flood-opacity="0" result="BackgroundImageFix"/>
<feColorMatrix in="SourceAlpha" type="matrix" values="0 0 0 0 0 0 0 0 0 0 0 0 0 0 0 0 0 0 127 0" result="hardAlpha"/>
<feOffset/>
<feGaussianBlur stdDeviation="0.625"/>
<feComposite in2="hardAlpha" operator="out"/>
<feColorMatrix type="matrix" values="0 0 0 0 0 0 0 0 0 0 0 0 0 0 0 0 0 0 1 0"/>
<feBlend mode="normal" in2="BackgroundImageFix" result="effect1_dropShadow_2056_1421"/>
<feBlend mode="normal" in="SourceGraphic" in2="effect1_dropShadow_2056_1421" result="shape"/>
<feColorMatrix in="SourceAlpha" type="matrix" values="0 0 0 0 0 0 0 0 0 0 0 0 0 0 0 0 0 0 127 0" result="hardAlpha"/>
<feOffset dy="0.25"/>
<feGaussianBlur stdDeviation="0.5375"/>
<feComposite in2="hardAlpha" operator="arithmetic" k2="-1" k3="1"/>
<feColorMatrix type="matrix" values="0 0 0 0 1 0 0 0 0 1 0 0 0 0 1 0 0 0 0.25 0"/>
<feBlend mode="normal" in2="shape" result="effect2_innerShadow_2056_1421"/>
</filter>
<filter id="filter2_di_2056_1421" x="20.75" y="1.75" width="10" height="10" filterUnits="userSpaceOnUse" color-interpolation-filters="sRGB">
<feFlood flood-opacity="0" result="BackgroundImageFix"/>
<feColorMatrix in="SourceAlpha" type="matrix" values="0 0 0 0 0 0 0 0 0 0 0 0 0 0 0 0 0 0 127 0" result="hardAlpha"/>
<feOffset/>
<feGaussianBlur stdDeviation="0.625"/>
<feComposite in2="hardAlpha" operator="out"/>
<feColorMatrix type="matrix" values="0 0 0 0 0 0 0 0 0 0 0 0 0 0 0 0 0 0 1 0"/>
<feBlend mode="normal" in2="BackgroundImageFix" result="effect1_dropShadow_2056_1421"/>
<feBlend mode="normal" in="SourceGraphic" in2="effect1_dropShadow_2056_1421" result="shape"/>
<feColorMatrix in="SourceAlpha" type="matrix" values="0 0 0 0 0 0 0 0 0 0 0 0 0 0 0 0 0 0 127 0" result="hardAlpha"/>
<feOffset dy="0.25"/>
<feGaussianBlur stdDeviation="0.5375"/>
<feComposite in2="hardAlpha" operator="arithmetic" k2="-1" k3="1"/>
<feColorMatrix type="matrix" values="0 0 0 0 1 0 0 0 0 1 0 0 0 0 1 0 0 0 0.25 0"/>
<feBlend mode="normal" in2="shape" result="effect2_innerShadow_2056_1421"/>
</filter>
<filter id="filter3_di_2056_1421" x="20.75" y="20.5" width="10" height="10" filterUnits="userSpaceOnUse" color-interpolation-filters="sRGB">
<feFlood flood-opacity="0" result="BackgroundImageFix"/>
<feColorMatrix in="SourceAlpha" type="matrix" values="0 0 0 0 0 0 0 0 0 0 0 0 0 0 0 0 0 0 127 0" result="hardAlpha"/>
<feOffset/>
<feGaussianBlur stdDeviation="0.625"/>
<feComposite in2="hardAlpha" operator="out"/>
<feColorMatrix type="matrix" values="0 0 0 0 0 0 0 0 0 0 0 0 0 0 0 0 0 0 1 0"/>
<feBlend mode="normal" in2="BackgroundImageFix" result="effect1_dropShadow_2056_1421"/>
<feBlend mode="normal" in="SourceGraphic" in2="effect1_dropShadow_2056_1421" result="shape"/>
<feColorMatrix in="SourceAlpha" type="matrix" values="0 0 0 0 0 0 0 0 0 0 0 0 0 0 0 0 0 0 127 0" result="hardAlpha"/>
<feOffset dy="0.25"/>
<feGaussianBlur stdDeviation="0.5375"/>
<feComposite in2="hardAlpha" operator="arithmetic" k2="-1" k3="1"/>
<feColorMatrix type="matrix" values="0 0 0 0 1 0 0 0 0 1 0 0 0 0 1 0 0 0 0.25 0"/>
<feBlend mode="normal" in2="shape" result="effect2_innerShadow_2056_1421"/>
</filter>
<filter id="filter4_di_2056_1421" x="1.5" y="20.5" width="10" height="10" filterUnits="userSpaceOnUse" color-interpolation-filters="sRGB">
<feFlood flood-opacity="0" result="BackgroundImageFix"/>
<feColorMatrix in="SourceAlpha" type="matrix" values="0 0 0 0 0 0 0 0 0 0 0 0 0 0 0 0 0 0 127 0" result="hardAlpha"/>
<feOffset/>
<feGaussianBlur stdDeviation="0.625"/>
<feComposite in2="hardAlpha" operator="out"/>
<feColorMatrix type="matrix" values="0 0 0 0 0 0 0 0 0 0 0 0 0 0 0 0 0 0 1 0"/>
<feBlend mode="normal" in2="BackgroundImageFix" result="effect1_dropShadow_2056_1421"/>
<feBlend mode="normal" in="SourceGraphic" in2="effect1_dropShadow_2056_1421" result="shape"/>
<feColorMatrix in="SourceAlpha" type="matrix" values="0 0 0 0 0 0 0 0 0 0 0 0 0 0 0 0 0 0 127 0" result="hardAlpha"/>
<feOffset dy="0.25"/>
<feGaussianBlur stdDeviation="0.5375"/>
<feComposite in2="hardAlpha" operator="arithmetic" k2="-1" k3="1"/>
<feColorMatrix type="matrix" values="0 0 0 0 1 0 0 0 0 1 0 0 0 0 1 0 0 0 0.25 0"/>
<feBlend mode="normal" in2="shape" result="effect2_innerShadow_2056_1421"/>
</filter>
<clipPath id="clip0_2056_1421">
<rect width="32" height="32" rx="2.5" fill="white"/>
</clipPath>
</defs>
</svg>
